<?xml version="1.0" standalone="no"?>
<!DOCTYPE svg PUBLIC "-//W3C//DTD SVG 20010904//EN"
 "http://www.w3.org/TR/2001/REC-SVG-20010904/DTD/svg10.dtd">
<svg version="1.0" xmlns="http://www.w3.org/2000/svg"
 width="260.000000pt" height="260.000000pt" viewBox="0 0 260.000000 260.000000"
 preserveAspectRatio="xMidYMid meet">
<metadata>
Created by potrace 1.11, written by Peter Selinger 2001-2013
</metadata>
<g transform="translate(0.000000,260.000000) scale(0.100000,-0.100000)"
fill="#000000" stroke="none">
<path d="M2131 2378 c-230 -46 -416 -138 -572 -285 -127 -120 -231 -283 -210
-329 25 -55 76 -48 116 16 42 67 195 214 278 268 180 117 393 157 564 106 19
-5 23 -1 33 36 6 23 13 47 16 55 4 10 -5 16 -30 21 -34 6 -60 24 -36 24 8 0
10 18 8 53 l-3 52 -35 1 c-19 0 -78 -8 -129 -18z"/>
<path d="M2485 1777 c-257 -262 -629 -515 -958 -651 -214 -89 -377 -124 -581
-124 -211 1 -366 31 -529 105 -54 25 -100 43 -103 40 -9 -8 64 -214 104 -293
162 -322 418 -546 712 -625 105 -28 322 -34 445 -13 336 58 570 254 763 639
101 200 190 492 227 740 4 22 8 51 10 64 3 14 7 52 10 85 3 34 8 78 11 99 3
20 1 37 -3 37 -4 0 -53 -46 -108 -103z m-105 -384 c-49 -198 -132 -416 -212
-557 -166 -293 -372 -449 -643 -484 -66 -9 -227 -8 -290 0 -251 36 -485 208
-643 472 -41 69 -51 93 -33 81 5 -3 33 -10 63 -16 50 -9 72 -13 158 -24 100
-14 281 -7 415 16 104 18 114 20 193 44 282 85 645 285 932 512 41 33 76 56
78 52 2 -5 -6 -48 -18 -96z"/>
<path d="M460 1820 c-105 -14 -135 -21 -220 -46 -76 -24 -213 -84 -233 -103
-4 -4 6 -28 23 -54 l29 -47 38 23 c37 21 36 20 -15 -32 l-54 -54 24 -19 c67
-54 61 -54 120 2 73 70 203 132 335 160 137 29 400 31 528 5 78 -16 94 -15
114 11 26 33 15 64 -30 86 -32 15 -186 51 -269 63 -63 10 -334 13 -390 5z"/>
</g>
</svg>
