<?xml version="1.0" encoding="UTF-8"?>
<svg id="Logos" xmlns="http://www.w3.org/2000/svg" viewBox="0 0 50 50">
  <defs>
    <style>
      .cls-1 {
        fill: #fff;
      }

      .cls-2 {
        fill: #05559e;
        fill-rule: evenodd;
      }
    </style>
  </defs>
  <circle class="cls-1" cx="25" cy="25" r="24.22"/>
  <path id="Folha" class="cls-2" d="M23.47,28.19c-1.92-2.35-2.84-6.18-1.87-10.09.97-3.9,3.6-6.92,6.41-8.1,1.93,2.35,2.93,5.16,2.22,8.74-.72,3.59-2.42,5.9-6.77,9.44h0ZM23.47,28.19h0ZM20.29,39.83c-3.17-1.51-6.58-5.06-7.49-9.62-.9-4.56-.58-7.94,1.92-11.53,3.67,2.7,5.64,5.45,6.54,9.26.91,3.79-.11,9.15-.97,11.9h0ZM20.29,39.83h0ZM21.47,39.96c1.01-4.93,2.22-8.7,6.08-13.14,3.85-4.45,8.07-6.63,11.83-7.51.13,4.42-.6,9.81-4.45,14.23-3.85,4.44-9.04,6.73-13.47,6.42h0Z"/>
</svg>