<svg xmlns="http://www.w3.org/2000/svg" viewBox="0 0 1200 900" font-family="'Segoe UI', 'Helvetica Neue', Arial, sans-serif">
  <defs>
    <linearGradient id="coreGrad" x1="0%" y1="0%" x2="100%" y2="100%">
      <stop offset="0%" style="stop-color:#3b82f6"/>
      <stop offset="100%" style="stop-color:#8b5cf6"/>
    </linearGradient>
    <linearGradient id="fieldGrad" x1="0%" y1="0%" x2="100%" y2="100%">
      <stop offset="0%" style="stop-color:#10b981"/>
      <stop offset="100%" style="stop-color:#059669"/>
    </linearGradient>
    <linearGradient id="formGrad" x1="0%" y1="0%" x2="100%" y2="100%">
      <stop offset="0%" style="stop-color:#8b5cf6"/>
      <stop offset="100%" style="stop-color:#a855f7"/>
    </linearGradient>
    <linearGradient id="shareGrad" x1="0%" y1="0%" x2="100%" y2="100%">
      <stop offset="0%" style="stop-color:#f97316"/>
      <stop offset="100%" style="stop-color:#ef4444"/>
    </linearGradient>
    <linearGradient id="dataGrad" x1="0%" y1="0%" x2="100%" y2="100%">
      <stop offset="0%" style="stop-color:#f59e0b"/>
      <stop offset="100%" style="stop-color:#eab308"/>
    </linearGradient>
    <linearGradient id="mapGrad" x1="0%" y1="0%" x2="100%" y2="100%">
      <stop offset="0%" style="stop-color:#06b6d4"/>
      <stop offset="100%" style="stop-color:#3b82f6"/>
    </linearGradient>
    <linearGradient id="platformGrad" x1="0%" y1="0%" x2="100%" y2="100%">
      <stop offset="0%" style="stop-color:#ec4899"/>
      <stop offset="100%" style="stop-color:#f43f5e"/>
    </linearGradient>

    <linearGradient id="lg1" x1="0%" y1="0%" x2="100%" y2="0%">
      <stop offset="0%" style="stop-color:#3b82f6;stop-opacity:0.5"/>
      <stop offset="100%" style="stop-color:#10b981;stop-opacity:0.5"/>
    </linearGradient>
    <linearGradient id="lg2" x1="0%" y1="0%" x2="100%" y2="0%">
      <stop offset="0%" style="stop-color:#3b82f6;stop-opacity:0.5"/>
      <stop offset="100%" style="stop-color:#06b6d4;stop-opacity:0.5"/>
    </linearGradient>
    <linearGradient id="lg3" x1="0%" y1="0%" x2="100%" y2="0%">
      <stop offset="0%" style="stop-color:#3b82f6;stop-opacity:0.5"/>
      <stop offset="100%" style="stop-color:#8b5cf6;stop-opacity:0.5"/>
    </linearGradient>
    <linearGradient id="lg4" x1="0%" y1="0%" x2="100%" y2="0%">
      <stop offset="0%" style="stop-color:#3b82f6;stop-opacity:0.5"/>
      <stop offset="100%" style="stop-color:#f97316;stop-opacity:0.5"/>
    </linearGradient>
    <linearGradient id="lg5" x1="0%" y1="0%" x2="100%" y2="0%">
      <stop offset="0%" style="stop-color:#3b82f6;stop-opacity:0.5"/>
      <stop offset="100%" style="stop-color:#f59e0b;stop-opacity:0.5"/>
    </linearGradient>
    <linearGradient id="lg6" x1="0%" y1="0%" x2="100%" y2="0%">
      <stop offset="0%" style="stop-color:#3b82f6;stop-opacity:0.5"/>
      <stop offset="100%" style="stop-color:#ec4899;stop-opacity:0.5"/>
    </linearGradient>

    <filter id="glow">
      <feGaussianBlur stdDeviation="3" result="coloredBlur"/>
      <feMerge>
        <feMergeNode in="coloredBlur"/>
        <feMergeNode in="SourceGraphic"/>
      </feMerge>
    </filter>
    <filter id="shadow">
      <feDropShadow dx="0" dy="4" stdDeviation="6" flood-color="#000" flood-opacity="0.3"/>
    </filter>
  </defs>

  <!-- Background -->
  <rect width="1200" height="900" fill="#0f172a"/>

  <!-- Subtle grid pattern -->
  <g opacity="0.04" stroke="#fff" stroke-width="0.5">
    <line x1="0" y1="0" x2="1200" y2="0" stroke-dasharray="4,8"/>
    <line x1="0" y1="60" x2="1200" y2="60" stroke-dasharray="4,8"/>
    <line x1="0" y1="120" x2="1200" y2="120" stroke-dasharray="4,8"/>
    <line x1="0" y1="180" x2="1200" y2="180" stroke-dasharray="4,8"/>
    <line x1="0" y1="240" x2="1200" y2="240" stroke-dasharray="4,8"/>
    <line x1="0" y1="300" x2="1200" y2="300" stroke-dasharray="4,8"/>
    <line x1="0" y1="360" x2="1200" y2="360" stroke-dasharray="4,8"/>
    <line x1="0" y1="420" x2="1200" y2="420" stroke-dasharray="4,8"/>
    <line x1="0" y1="480" x2="1200" y2="480" stroke-dasharray="4,8"/>
    <line x1="0" y1="540" x2="1200" y2="540" stroke-dasharray="4,8"/>
    <line x1="0" y1="600" x2="1200" y2="600" stroke-dasharray="4,8"/>
    <line x1="0" y1="660" x2="1200" y2="660" stroke-dasharray="4,8"/>
    <line x1="0" y1="720" x2="1200" y2="720" stroke-dasharray="4,8"/>
    <line x1="0" y1="780" x2="1200" y2="780" stroke-dasharray="4,8"/>
    <line x1="0" y1="840" x2="1200" y2="840" stroke-dasharray="4,8"/>
    <line x1="0" y1="900" x2="1200" y2="900" stroke-dasharray="4,8"/>
    <line x1="0" y1="0" x2="0" y2="900" stroke-dasharray="4,8"/>
    <line x1="60" y1="0" x2="60" y2="900" stroke-dasharray="4,8"/>
    <line x1="120" y1="0" x2="120" y2="900" stroke-dasharray="4,8"/>
    <line x1="180" y1="0" x2="180" y2="900" stroke-dasharray="4,8"/>
    <line x1="240" y1="0" x2="240" y2="900" stroke-dasharray="4,8"/>
    <line x1="300" y1="0" x2="300" y2="900" stroke-dasharray="4,8"/>
    <line x1="360" y1="0" x2="360" y2="900" stroke-dasharray="4,8"/>
    <line x1="420" y1="0" x2="420" y2="900" stroke-dasharray="4,8"/>
    <line x1="480" y1="0" x2="480" y2="900" stroke-dasharray="4,8"/>
    <line x1="540" y1="0" x2="540" y2="900" stroke-dasharray="4,8"/>
    <line x1="600" y1="0" x2="600" y2="900" stroke-dasharray="4,8"/>
    <line x1="660" y1="0" x2="660" y2="900" stroke-dasharray="4,8"/>
    <line x1="720" y1="0" x2="720" y2="900" stroke-dasharray="4,8"/>
    <line x1="780" y1="0" x2="780" y2="900" stroke-dasharray="4,8"/>
    <line x1="840" y1="0" x2="840" y2="900" stroke-dasharray="4,8"/>
    <line x1="900" y1="0" x2="900" y2="900" stroke-dasharray="4,8"/>
    <line x1="960" y1="0" x2="960" y2="900" stroke-dasharray="4,8"/>
    <line x1="1020" y1="0" x2="1020" y2="900" stroke-dasharray="4,8"/>
    <line x1="1080" y1="0" x2="1080" y2="900" stroke-dasharray="4,8"/>
    <line x1="1140" y1="0" x2="1140" y2="900" stroke-dasharray="4,8"/>
    <line x1="1200" y1="0" x2="1200" y2="900" stroke-dasharray="4,8"/>
  </g>

  <!-- Decorative map contour lines -->
  <g opacity="0.05" fill="none" stroke="#60a5fa" stroke-width="1">
    <path d="M0,750 Q200,700 400,730 Q600,760 800,710 Q1000,660 1200,700"/>
    <path d="M0,770 Q200,720 400,750 Q600,780 800,730 Q1000,680 1200,720"/>
    <path d="M0,790 Q200,740 400,770 Q600,800 800,750 Q1000,700 1200,740"/>
    <path d="M0,160 Q300,140 600,170 Q900,200 1200,150"/>
    <path d="M0,180 Q300,160 600,190 Q900,220 1200,170"/>
  </g>

  <!-- Connection lines from center to 6 satellite nodes -->
  <g filter="url(#glow)">
    <path d="M560,395 Q400,290 270,200" fill="none" stroke="url(#lg1)" stroke-width="2" stroke-dasharray="6,4"/>
    <path d="M640,395 Q800,290 930,200" fill="none" stroke="url(#lg2)" stroke-width="2" stroke-dasharray="6,4"/>
    <path d="M510,440 Q350,440 290,440" fill="none" stroke="url(#lg3)" stroke-width="2" stroke-dasharray="6,4"/>
    <path d="M690,440 Q850,440 910,440" fill="none" stroke="url(#lg4)" stroke-width="2" stroke-dasharray="6,4"/>
    <path d="M560,485 Q400,590 270,690" fill="none" stroke="url(#lg5)" stroke-width="2" stroke-dasharray="6,4"/>
    <path d="M640,485 Q800,590 930,690" fill="none" stroke="url(#lg6)" stroke-width="2" stroke-dasharray="6,4"/>
  </g>

  <!-- ==================== TITLE ==================== -->
  <g transform="translate(600, 50)">
    <text text-anchor="middle" fill="#e2e8f0" font-size="40" font-weight="700" letter-spacing="2">
      MapitGIS
    </text>
    <text text-anchor="middle" y="32" fill="#94a3b8" font-size="16" letter-spacing="4" text-transform="uppercase">
      Professional Mobile GIS Platform
    </text>
  </g>

  <!-- ==================== CENTER HUB ==================== -->
  <g transform="translate(600, 440)" filter="url(#shadow)">
    <circle cx="0" cy="0" r="100" fill="none" stroke="url(#coreGrad)" stroke-width="2" opacity="0.4"/>
    <circle cx="0" cy="0" r="90" fill="url(#coreGrad)" opacity="0.15"/>
    <circle cx="0" cy="0" r="90" fill="none" stroke="url(#coreGrad)" stroke-width="2.5" filter="url(#glow)"/>

    <!-- Map pin icon -->
    <g transform="translate(0, -25)">
      <path d="M0,-28 C-16,-28 -28,-16 -28,0 C-28,20 0,42 0,42 C0,42 28,20 28,0 C28,-16 16,-28 0,-28Z"
            fill="url(#coreGrad)" opacity="0.8"/>
      <circle cx="0" cy="0" r="11" fill="#1e293b"/>
      <circle cx="0" cy="0" r="6" fill="#60a5fa"/>
    </g>

    <text text-anchor="middle" y="42" fill="#e2e8f0" font-size="20" font-weight="700">GeoPackage</text>
    <text text-anchor="middle" y="62" fill="#94a3b8" font-size="13">OGC Standard</text>
  </g>

  <!-- ==================== 1. FIELD COLLECTION (Top Left) ==================== -->
  <g transform="translate(220, 185)" filter="url(#shadow)">
    <rect x="-150" y="-80" width="300" height="190" rx="14" fill="#1e293b" stroke="url(#fieldGrad)" stroke-width="1.5" opacity="0.95"/>
    <rect x="-150" y="-80" width="300" height="40" rx="14" fill="url(#fieldGrad)" opacity="0.15"/>

    <g transform="translate(-128, -60)">
      <circle cx="0" cy="0" r="12" fill="url(#fieldGrad)" opacity="0.2"/>
      <path d="M-5,5 L0,0 M0,0 L5,-5 M-3,-3 A6,6 0 0,1 3,3 M-6,-6 A10,10 0 0,1 6,6" fill="none" stroke="#10b981" stroke-width="1.5" stroke-linecap="round"/>
    </g>
    <text x="-108" y="-53" fill="#10b981" font-size="17" font-weight="700">Field Collection</text>

    <g fill="#cbd5e1" font-size="14">
      <circle cx="-128" cy="-24" r="3" fill="#10b981" opacity="0.7"/>
      <text x="-118" y="-19">External Bluetooth GNSS</text>
      <circle cx="-128" cy="4" r="3" fill="#10b981" opacity="0.7"/>
      <text x="-118" y="9">RTK Corrections (cm accuracy)</text>
      <circle cx="-128" cy="32" r="3" fill="#10b981" opacity="0.7"/>
      <text x="-118" y="37">GPS Track Recording</text>
      <circle cx="-128" cy="60" r="3" fill="#10b981" opacity="0.7"/>
      <text x="-118" y="65">Geoid Height Calculations</text>
      <circle cx="-128" cy="88" r="3" fill="#10b981" opacity="0.7"/>
      <text x="-118" y="93">OSTN15 / RDNAPTRANS Grids</text>
    </g>
  </g>

  <!-- ==================== 2. MAP SERVICES (Top Right) ==================== -->
  <g transform="translate(980, 185)" filter="url(#shadow)">
    <rect x="-150" y="-80" width="300" height="190" rx="14" fill="#1e293b" stroke="url(#mapGrad)" stroke-width="1.5" opacity="0.95"/>
    <rect x="-150" y="-80" width="300" height="40" rx="14" fill="url(#mapGrad)" opacity="0.15"/>

    <g transform="translate(-128, -60)">
      <circle cx="0" cy="0" r="12" fill="url(#mapGrad)" opacity="0.2"/>
      <circle cx="0" cy="0" r="7" fill="none" stroke="#22d3ee" stroke-width="1.2"/>
      <ellipse cx="0" cy="0" rx="3" ry="7" fill="none" stroke="#22d3ee" stroke-width="1"/>
      <line x1="-7" y1="0" x2="7" y2="0" stroke="#22d3ee" stroke-width="0.8"/>
    </g>
    <text x="-108" y="-53" fill="#22d3ee" font-size="17" font-weight="700">Map Services</text>

    <g fill="#cbd5e1" font-size="14">
      <circle cx="-128" cy="-24" r="3" fill="#22d3ee" opacity="0.7"/>
      <text x="-118" y="-19">WMS / WMTS Layers</text>
      <circle cx="-128" cy="4" r="3" fill="#22d3ee" opacity="0.7"/>
      <text x="-118" y="9">WFS Feature Services</text>
      <circle cx="-128" cy="32" r="3" fill="#22d3ee" opacity="0.7"/>
      <text x="-118" y="37">XYZ / TMS Tile Sources</text>
      <circle cx="-128" cy="60" r="3" fill="#22d3ee" opacity="0.7"/>
      <text x="-118" y="65">Offline Tile Caching</text>
      <circle cx="-128" cy="88" r="3" fill="#22d3ee" opacity="0.7"/>
      <text x="-118" y="93">Mapbox Vector Tiles</text>
    </g>
  </g>

  <!-- ==================== 3. DATA COLLECTION FORMS (Mid Left) ==================== -->
  <g transform="translate(155, 440)" filter="url(#shadow)">
    <rect x="-130" y="-80" width="260" height="190" rx="14" fill="#1e293b" stroke="url(#formGrad)" stroke-width="1.5" opacity="0.95"/>
    <rect x="-130" y="-80" width="260" height="40" rx="14" fill="url(#formGrad)" opacity="0.15"/>

    <g transform="translate(-108, -60)">
      <circle cx="0" cy="0" r="12" fill="url(#formGrad)" opacity="0.2"/>
      <rect x="-5" y="-7" width="10" height="13" rx="1.5" fill="none" stroke="#a78bfa" stroke-width="1.2"/>
      <line x1="-3" y1="-3" x2="3" y2="-3" stroke="#a78bfa" stroke-width="0.8"/>
      <line x1="-3" y1="0" x2="3" y2="0" stroke="#a78bfa" stroke-width="0.8"/>
      <line x1="-3" y1="3" x2="1" y2="3" stroke="#a78bfa" stroke-width="0.8"/>
    </g>
    <text x="-88" y="-53" fill="#a78bfa" font-size="16" font-weight="700">Data Collection Forms</text>

    <g fill="#cbd5e1" font-size="13">
      <circle cx="-108" cy="-24" r="3" fill="#a78bfa" opacity="0.7"/>
      <text x="-98" y="-19">SQL Table Fields to Forms</text>
      <circle cx="-108" cy="4" r="3" fill="#a78bfa" opacity="0.7"/>
      <text x="-98" y="9">Selection / Multi-Selection Lists</text>
      <circle cx="-108" cy="32" r="3" fill="#a78bfa" opacity="0.7"/>
      <text x="-98" y="37">QR / Barcode Scanner Input</text>
      <circle cx="-108" cy="60" r="3" fill="#a78bfa" opacity="0.7"/>
      <text x="-98" y="65">Photo &amp; Media Attachments</text>
      <circle cx="-108" cy="88" r="3" fill="#a78bfa" opacity="0.7"/>
      <text x="-98" y="93">Auto-Generated from Schema</text>
    </g>
  </g>

  <!-- ==================== 4. DATA SHARING (Mid Right) ==================== -->
  <g transform="translate(1045, 440)" filter="url(#shadow)">
    <rect x="-130" y="-80" width="260" height="190" rx="14" fill="#1e293b" stroke="url(#shareGrad)" stroke-width="1.5" opacity="0.95"/>
    <rect x="-130" y="-80" width="260" height="40" rx="14" fill="url(#shareGrad)" opacity="0.15"/>

    <g transform="translate(-108, -60)">
      <circle cx="0" cy="0" r="12" fill="url(#shareGrad)" opacity="0.2"/>
      <circle cx="0" cy="-5" r="2.5" fill="none" stroke="#fb923c" stroke-width="1.2"/>
      <circle cx="-6" cy="3" r="2.5" fill="none" stroke="#fb923c" stroke-width="1.2"/>
      <circle cx="6" cy="3" r="2.5" fill="none" stroke="#fb923c" stroke-width="1.2"/>
      <line x1="-1.5" y1="-3" x2="-4.5" y2="1" stroke="#fb923c" stroke-width="0.8"/>
      <line x1="1.5" y1="-3" x2="4.5" y2="1" stroke="#fb923c" stroke-width="0.8"/>
    </g>
    <text x="-88" y="-53" fill="#fb923c" font-size="16" font-weight="700">Data Sharing</text>

    <g fill="#cbd5e1" font-size="13">
      <circle cx="-108" cy="-24" r="3" fill="#fb923c" opacity="0.7"/>
      <text x="-98" y="-19">Local File Sharing</text>
      <circle cx="-108" cy="4" r="3" fill="#fb923c" opacity="0.7"/>
      <text x="-98" y="9">Android Share Intent</text>
      <circle cx="-108" cy="32" r="3" fill="#fb923c" opacity="0.7"/>
      <text x="-98" y="37">PostgreSQL / PostGIS</text>
      <circle cx="-108" cy="60" r="3" fill="#fb923c" opacity="0.7"/>
      <text x="-98" y="65">Dropbox Integration</text>
      <circle cx="-108" cy="88" r="3" fill="#fb923c" opacity="0.7"/>
      <text x="-98" y="93">Export to Multiple Formats</text>
    </g>
  </g>

  <!-- ==================== 5. DATA FORMATS (Bottom Left) ==================== -->
  <g transform="translate(220, 700)" filter="url(#shadow)">
    <rect x="-150" y="-80" width="300" height="165" rx="14" fill="#1e293b" stroke="url(#dataGrad)" stroke-width="1.5" opacity="0.95"/>
    <rect x="-150" y="-80" width="300" height="40" rx="14" fill="url(#dataGrad)" opacity="0.15"/>

    <g transform="translate(-128, -60)">
      <circle cx="0" cy="0" r="12" fill="url(#dataGrad)" opacity="0.2"/>
      <path d="M0,-6 L8,0 L0,3 L-8,0 Z" fill="none" stroke="#f59e0b" stroke-width="1.2"/>
      <path d="M-8,3 L0,6 L8,3" fill="none" stroke="#f59e0b" stroke-width="1.2"/>
      <path d="M-8,6 L0,9 L8,6" fill="none" stroke="#f59e0b" stroke-width="1.2"/>
    </g>
    <text x="-108" y="-53" fill="#f59e0b" font-size="17" font-weight="700">Data Formats</text>

    <g fill="#cbd5e1" font-size="14">
      <circle cx="-128" cy="-24" r="3" fill="#f59e0b" opacity="0.7"/>
      <text x="-118" y="-19">GeoPackage (native)</text>
      <circle cx="-128" cy="4" r="3" fill="#f59e0b" opacity="0.7"/>
      <text x="-118" y="9">Shapefile (SHP/DBF/SHX)</text>
      <circle cx="-128" cy="32" r="3" fill="#f59e0b" opacity="0.7"/>
      <text x="-118" y="37">GeoJSON / KML / KMZ</text>
      <circle cx="-128" cy="60" r="3" fill="#f59e0b" opacity="0.7"/>
      <text x="-118" y="65">CSV / GPX / DXF / MBTiles</text>
    </g>
  </g>

  <!-- ==================== 6. MOBILE PLATFORMS (Bottom Right) ==================== -->
  <g transform="translate(980, 700)" filter="url(#shadow)">
    <rect x="-150" y="-80" width="300" height="165" rx="14" fill="#1e293b" stroke="url(#platformGrad)" stroke-width="1.5" opacity="0.95"/>
    <rect x="-150" y="-80" width="300" height="40" rx="14" fill="url(#platformGrad)" opacity="0.15"/>

    <g transform="translate(-128, -60)">
      <circle cx="0" cy="0" r="12" fill="url(#platformGrad)" opacity="0.2"/>
      <rect x="-5" y="-6" width="10" height="8" rx="1" fill="none" stroke="#f472b6" stroke-width="1.2"/>
      <line x1="-2" y1="2" x2="2" y2="2" stroke="#f472b6" stroke-width="1"/>
      <line x1="0" y1="2" x2="0" y2="5" stroke="#f472b6" stroke-width="1"/>
      <line x1="-3" y1="5" x2="3" y2="5" stroke="#f472b6" stroke-width="1"/>
    </g>
    <text x="-108" y="-53" fill="#f472b6" font-size="17" font-weight="700">Mobile Platforms</text>

    <g transform="translate(0, -5)">
      <rect x="-133" y="-16" width="130" height="65" rx="10" fill="#1e293b" stroke="#34d399" stroke-width="1" opacity="0.8"/>
      <text x="-68" y="8" text-anchor="middle" fill="#34d399" font-size="14" font-weight="600">Android</text>
      <text x="-68" y="25" text-anchor="middle" fill="#64748b" font-size="11">Kotlin + Compose</text>
      <text x="-68" y="40" text-anchor="middle" fill="#4ade80" font-size="10" opacity="0.7">Leading Platform</text>

      <rect x="3" y="-16" width="130" height="65" rx="10" fill="#1e293b" stroke="#60a5fa" stroke-width="1" opacity="0.8"/>
      <text x="68" y="8" text-anchor="middle" fill="#60a5fa" font-size="14" font-weight="600">iOS</text>
      <text x="68" y="25" text-anchor="middle" fill="#64748b" font-size="11">Swift + SwiftUI</text>
      <text x="68" y="40" text-anchor="middle" fill="#93c5fd" font-size="10" opacity="0.7">Feature Parity</text>
    </g>
  </g>

  <!-- ==================== FEATURE BADGES (around center hub) ==================== -->

  <g transform="translate(460, 325)">
    <rect x="-78" y="-15" width="156" height="30" rx="15" fill="#1e293b" stroke="#a78bfa" stroke-width="1" opacity="0.9"/>
    <text text-anchor="middle" y="5" fill="#a78bfa" font-size="12" font-weight="600">500+ Coord Systems</text>
  </g>

  <g transform="translate(740, 325)">
    <rect x="-62" y="-15" width="124" height="30" rx="15" fill="#1e293b" stroke="#34d399" stroke-width="1" opacity="0.9"/>
    <text text-anchor="middle" y="5" fill="#34d399" font-size="12" font-weight="600">Edit Sessions</text>
  </g>

  <g transform="translate(600, 260)">
    <rect x="-75" y="-15" width="150" height="30" rx="15" fill="#1e293b" stroke="#c084fc" stroke-width="1" opacity="0.9"/>
    <text text-anchor="middle" y="5" fill="#c084fc" font-size="12" font-weight="600">Point / Line / Polygon</text>
  </g>

  <g transform="translate(460, 560)">
    <rect x="-65" y="-15" width="130" height="30" rx="15" fill="#1e293b" stroke="#fbbf24" stroke-width="1" opacity="0.9"/>
    <text text-anchor="middle" y="5" fill="#fbbf24" font-size="12" font-weight="600">Measurements</text>
  </g>

  <g transform="translate(740, 560)">
    <rect x="-68" y="-15" width="136" height="30" rx="15" fill="#1e293b" stroke="#38bdf8" stroke-width="1" opacity="0.9"/>
    <text text-anchor="middle" y="5" fill="#38bdf8" font-size="12" font-weight="600">Custom Labels</text>
  </g>

  <g transform="translate(600, 620)">
    <rect x="-68" y="-15" width="136" height="30" rx="15" fill="#1e293b" stroke="#fb7185" stroke-width="1" opacity="0.9"/>
    <text text-anchor="middle" y="5" fill="#fb7185" font-size="12" font-weight="600">Surveying Tools</text>
  </g>

  <!-- Decorative dots -->
  <g opacity="0.3">
    <circle cx="50" cy="120" r="2" fill="#3b82f6"/>
    <circle cx="1150" cy="120" r="2" fill="#8b5cf6"/>
    <circle cx="50" cy="800" r="2" fill="#10b981"/>
    <circle cx="1150" cy="800" r="2" fill="#f59e0b"/>
    <circle cx="600" cy="100" r="1.5" fill="#60a5fa"/>
  </g>
</svg>